<?xml version="1.0" encoding="utf-8"?>
<!-- Generator: Adobe Illustrator 18.0.0, SVG Export Plug-In . SVG Version: 6.00 Build 0)  -->
<!DOCTYPE svg PUBLIC "-//W3C//DTD SVG 1.1//EN" "http://www.w3.org/Graphics/SVG/1.1/DTD/svg11.dtd">
<svg version="1.1" id="Layer_1" xmlns="http://www.w3.org/2000/svg" xmlns:xlink="http://www.w3.org/1999/xlink" x="0px" y="0px"
	 viewBox="0 0 1024 768" enable-background="new 0 0 1024 768" xml:space="preserve">
<path fill="#B5B5B5" d="M142.9,616.1c-37.2-7.3-9.6-13,11.8-16.5c49.7-8.1,65.7-25.1,140.3-32.6c112.7-11.3,393,6.9,446.5,7.7
	c31.6,0.4,71,2.3,75.8,2.2c28.4-0.7,132.8,11.3,92.8,28.6c-43.2,18.8-40.2,26.1-83.1,29.8c-125.9,11.2-494.4,10.6-505.3,10.1
	C228.8,642.1,184.4,624.3,142.9,616.1z"/>
<path fill="#A9E515" d="M320.4,155.5c28.8-41.3,0.5-80.4,11.4-102.7c11.4-23.5,67.7-32.3,92.6-24.6c16.8,5.1,51.8,40.4,43.1,69.2
	c-13.7,45.4-74.4,8.1-112.4,63.7c-32.2,46.9-11.3,83.9,5.7,101.5c15.4,16,44,30.8,115,20c33.3-5.1,112.7,24.6,71.7,104.2
	c-9.8,19-34.5,27.7-55,31.5c-72.1,13.4-88-49.3-106.2-92.8c-8.3-19.9-31.8-31.3-55.3-30.3c-32.4,1.5-116.6,34.4-138.3-25.4
	c-24.7-68,41.7-87.1,59.8-92.3C267.9,173,312.2,167.3,320.4,155.5z"/>
<path fill="#0FEAE4" d="M758.4,363.6c-16,51.4,60.9,83.3,21.5,148.9c-16,26.5-52.5,42-100.7,16.7c-23.6-12.4-63.3-82.2-48.8-111.9
	c15.8-32.4,50.8-31.4,77.9-51.4c20.6-15.2,21.4-42.2,18.5-68c-2.9-25.7-8.6-39.4-14.7-51c-12.5-23.9-53.4-42.9-107.7-21.2
	c-33.1,13.3-96.5-12.5-78.1-84.2c8.5-32.9,53.7-66.3,96.1-32.6c23.1,18.4,24.7,48.6,36.9,71.4c19.1,35.6,57.9,28.4,78.5,27.4
	c28.3-1.4,93.2-9.8,105.1,41.5c18.3,79.1-47.4,75-61.4,83.7C766.2,342.2,762.1,351.6,758.4,363.6z"/>
<path fill="#083F69" d="M609.3,406.1c-27.5,70,44.9,99.2-7.6,177.8c-19.4,29-73.9,42-122.7,18.1c-35.9-17.5-49.3-86.5-29.7-123.4
	C476.5,427.2,559.4,447,574,364.5c5-28.2-2.7-48.1-15.2-67.6c-16.1-25.3-60.9-34-112.5-26.7c-35.2,5-113.7-11-85-87.4
	c12-31.8,63.3-53.7,107.9-33.3c35.2,16.1,31.8,42.3,43.8,65.2c17.4,33.1,41.3,33.8,65.5,32.6c52-2.5,112.8-34.5,127.1,41.6
	c15,79.8-40.6,73.1-65.9,88.7C624.4,386.9,613.9,394.3,609.3,406.1z"/>
<g>
	<g>
		<path fill="#FFFFFF" stroke="#FFFFFF" stroke-miterlimit="10" d="M285.8,627.8l3.8-23.1c0.6-3.9,1.2-7.7,1.9-11.6l1.8-11.6
			L295,570c0.5-3.9,1.1-7.7,1.7-11.6l1.6-11.6c0.5-3.9,1-7.7,1.6-11.6l1.5-11.6l1.4-11.6l1.4-11.6l1.3-11.6
			c0.4-3.9,0.8-7.7,1.3-11.6l1.2-11.6l1.1-11.6l1-11.6l19.1,1.4v17.8v17.8v8.9v4.5v2.1v0.5v0.3v0.2c0,0.2,0,0.4,0.1,0.7
			c0.1,1,0.2,1.7,0.3,1.9c0.1,0.3,0.1-0.2-0.5-0.9c-0.2-0.2-0.3-0.3-0.5-0.5c-0.1-0.1-0.2-0.2-0.3-0.2c-0.1-0.1-0.2-0.2-0.3-0.2
			l-0.1-0.1h-0.1c0.1,0.1-0.8-0.4-0.4-0.2l0.3,0.1l0.3,0.1c0.1,0,0.1,0,0,0l-0.1-0.1l-0.2-0.1c-0.6-0.2-0.7-0.3-0.9-0.3
			c-0.5-0.1-1-0.2-1.5-0.1c-0.4,0.1-0.7,0.1-0.8,0.2c-0.2,0.1,0.1-0.1,0.4-0.5s0.9-1,1.4-1.7c0.5-0.7,1-1.5,1.4-2.2l1.9-3.8l4.1-7.9
			l3.9-7.8c1.3-2.6,2.6-5.2,3.9-7.8c1.3-2.6,2.6-5.2,3.8-7.9l3.8-7.9c1.3-2.6,2.5-5.3,3.7-8c2.5-5.3,4.8-10.7,7.2-16
			c2.3-5.4,4.7-10.7,6.9-16.1c1.1-2.7,2.2-5.4,3.3-8.1l3.3-8.1c1.1-2.7,2.1-5.4,3.2-8.2c1-2.7,2.1-5.4,3.1-8.2l3.1-8.2l2.9-8.2
			c1-2.7,2-5.5,2.9-8.3c0.9-2.8,2-5.5,2.8-8.3l2.8-8.3c0.9-2.8,1.8-5.6,2.7-8.3c1.8-5.2,3.4-10.8,5.2-16.4l26.1,7.5l-3.5,12.6
			l-3.5,12.6l-3.4,12.6c-1.1,4.2-2.2,8.4-3.3,12.6c-2.2,8.4-4.3,16.9-6.3,25.3c-2,8.4-4,16.9-5.8,25.4c-0.9,4.3-1.8,8.5-2.6,12.8
			c-0.8,4.3-1.7,8.5-2.4,12.8l-1.1,6.4c-0.4,2.1-0.7,4.3-1,6.4l-1,6.4l-0.9,6.4l-0.9,6.4l-0.8,6.4c-0.3,2.1-0.5,4.3-0.8,6.4
			l-0.7,6.4l-0.3,3.2l-0.2,1.6l-0.1,1.6l-0.5,6.4l-0.3,3.2l-0.1,0.8v0.2c0,0.1,0-0.2,0,0v0.1v0.4l-0.1,1.6l-0.4,6.6
			c-0.1,1.1-0.1,2.2-0.2,3.2l-0.1,3.2c-0.1,2.1-0.2,4.3-0.2,6.4l-0.1,6.5c-0.1,2.2,0,4.3-0.1,6.5c-0.1,8.6,0.2,17.3,0.6,25.9
			c0.3,4.3,0.4,8.7,0.8,13l0.5,6.5l0.6,6.5l0.3,3.2l0.4,3.2l0.7,6.5l0.9,6.4l0.4,3.2l0.5,3.2l1,6.4l1.1,6.4
			c0.7,4.3,1.6,8.6,2.3,12.9c1.7,8.6,3.5,17.1,5.7,25.6c1,4.2,2.2,8.4,3.5,12.5c1.3,4.1,2.7,8.2,4.4,12.2c3.3,8,7.6,15.7,13.1,22.6
			c-6.6-5.9-12.1-13.1-16.6-20.8c-4.5-7.7-8.1-16-11.3-24.4c-1.6-4.1-3.1-8.3-4.5-12.5c-0.8-2.1-1.4-4.2-2.1-6.3
			c-0.7-2.1-1.4-4.3-2-6.4c-1.3-4.3-2.6-8.5-3.7-12.8l-1.7-6.4l-1.6-6.5l-0.8-3.3l-0.8-3.3l-1.5-6.5l-1.3-6.6l-0.7-3.3l-0.6-3.3
			c-1.7-8.8-2.9-17.7-4.1-26.5c-1-8.9-2-17.8-2.5-26.8c-0.3-4.5-0.5-8.9-0.7-13.5c-0.1-2.2-0.1-4.5-0.2-6.8l-0.1-3.4
			c0-1.1-0.1-2.3-0.1-3.4v-6.6v-1.6v-0.4v-0.5v-0.8l0.1-3.4l0.2-6.8l0.1-1.7l0.1-1.7l0.2-3.4l0.3-6.8c0.1-2.2,0.3-4.5,0.5-6.7
			l0.5-6.7l0.7-6.7l0.7-6.7l0.8-6.6c0.3-2.2,0.5-4.5,0.8-6.6l0.9-6.6c0.3-2.2,0.6-4.4,1-6.6l1.1-6.6c0.7-4.4,1.5-8.8,2.3-13.2
			c0.8-4.4,1.7-8.8,2.5-13.1c0.8-4.4,1.8-8.7,2.7-13.1c1.9-8.7,3.9-17.4,5.9-26c1-4.3,2.1-8.6,3.2-12.9l3.3-12.9l3.4-12.8l3.5-12.8
			l25.9,7.2c-1.7,5.8-3.4,11.6-5.3,17.2c-0.9,2.9-1.8,5.7-2.8,8.6l-2.8,8.6c-0.9,2.8-2,5.7-2.9,8.5c-1,2.8-2,5.7-3.1,8.5l-3.1,8.4
			l-3.2,8.4c-1.1,2.8-2.2,5.6-3.3,8.4c-1.1,2.8-2.2,5.6-3.4,8.3l-3.5,8.3c-1.1,2.8-2.4,5.5-3.6,8.3c-2.4,5.5-4.9,11-7.4,16.5
			l-3.9,8.1c-1.3,2.7-2.6,5.4-3.9,8.1c-1.3,2.7-2.6,5.4-4,8.1l-4.1,8c-1.4,2.7-2.8,5.3-4.2,8c-1.4,2.7-2.8,5.3-4.3,8l-4.4,8
			l-4.4,7.7l-2.3,4.1c-1,1.8-2.2,3.5-3.5,5.1s-2.8,3.2-4.7,4.8c-1.9,1.5-4,3.1-7,4.3c-1.5,0.6-3.2,1-5.1,1.3
			c-1.9,0.2-3.9,0.1-5.9-0.3c-1-0.2-1.8-0.4-3.1-1l-0.4-0.2l-0.2-0.1l-0.1-0.1l-0.3-0.1l-0.3-0.1c0.4,0.2-0.5-0.3-0.5-0.3l-0.2-0.1
			l-0.3-0.2c-0.4-0.3-0.8-0.5-1.3-0.8c-0.4-0.3-0.8-0.6-1.2-0.9c-0.8-0.6-1.5-1.3-2.1-2c-2.6-2.9-3.8-6.2-4.4-8.7
			c-0.6-2.6-0.8-4.9-0.8-6.9c0-0.5,0-1,0-1.5V496v-0.3v-0.5l0.1-2.3l0.3-4.4l0.5-8.9l1-17.8L310,444l19.1,1.4l-1.9,11.6l-2,11.6
			l-2.1,11.6c-0.7,3.9-1.4,7.7-2.2,11.6l-2.3,11.5l-2.4,11.5l-2.5,11.4l-2.6,11.4c-0.9,3.8-1.8,7.6-2.8,11.4l-2.9,11.4
			c-1,3.8-2,7.6-3,11.3l-3.1,11.3l-3.3,11.3c-1.1,3.8-2.2,7.5-3.4,11.2l-3.5,11.2C288.3,620.4,287.1,624.1,285.8,627.8z"/>
	</g>
	<g>
		<path fill="#FFFFFF" stroke="#FFFFFF" stroke-miterlimit="10" d="M418.7,673.5c0,0-0.5-3.8-1.2-10.4c-0.3-3.3-0.7-7.3-1-11.9
			c-0.2-2.3-0.3-4.7-0.5-7.3c-0.2-2.6-0.3-5.3-0.4-8.1c-0.2-2.8-0.3-5.8-0.4-8.8c-0.1-3.1-0.2-6.2-0.3-9.4
			c-0.2-6.5-0.3-13.3-0.3-20.4c-0.1-3.5,0-7.1,0.1-10.7c0-3.7,0.1-7.3,0.2-11c0.1-7.4,0.4-14.9,0.7-22.5c0.3-7.5,0.7-15,1.2-22.5
			c0.1-1.9,0.2-3.7,0.4-5.5c0.2-1.9,0.3-3.7,0.4-5.4c0.3-3.6,0.5-7.2,0.9-10.7c0.6-7,1.3-13.8,2-20.3c0.4-3.2,0.7-6.4,1.1-9.4
			c0.4-3.1,0.8-5.9,1.1-8.8c0.4-2.8,0.8-5.5,1.1-8.1c0.4-2.6,0.8-5,1.1-7.2c0.7-4.5,1.4-8.5,2-11.8c1.2-6.5,2.1-10.2,2.1-10.2
			s0.3,3.8,0.7,10.4c0.2,3.3,0.3,7.3,0.5,11.9c0.2,4.6,0.3,9.8,0.4,15.4c0.1,5.7,0.1,11.8,0.1,18.2c0,6.5-0.1,13.3-0.2,20.3
			c0,3.5-0.1,7.1-0.2,10.7c-0.1,1.8-0.1,3.7-0.1,5.4c-0.1,1.9-0.1,3.7-0.2,5.5c-0.2,7.4-0.5,14.9-0.8,22.4c-0.3,7.5-0.7,15-1.1,22.4
			c-0.2,3.7-0.4,7.4-0.7,11c-0.2,3.6-0.4,7.2-0.7,10.7c-0.4,7-1,13.8-1.5,20.3c-0.5,6.4-1.1,12.5-1.6,18.1
			c-0.5,5.6-1.1,10.8-1.6,15.4c-0.5,4.6-1,8.6-1.5,11.8C419.3,669.8,418.7,673.5,418.7,673.5z"/>
	</g>
	<g>
		<path fill="#FFFFFF" stroke="#FFFFFF" stroke-miterlimit="10" d="M404.4,506c0,0,0-0.3-0.1-0.8c0-0.5-0.1-1.3,0-2.3
			c0.1-2,0.5-5.1,1.6-8.8c1-3.7,2.8-8.1,4.7-12.9c2-4.9,4.3-10.4,7.1-16.2c2.8-5.9,6.2-12.2,10.2-18.6c2-3.2,4.3-6.4,6.6-9.6
			l0.4-0.6l0.2-0.3l0.3-0.3c0.3-0.4,0.6-0.8,0.9-1.1c0.3-0.4,0.6-0.8,0.9-1.1s0.7-0.8,1-1.2c1.4-1.6,2.7-3.2,4.1-4.7
			c2.8-3.1,5.9-6.1,9.2-9l1.3-1.1l1.3-1c0.9-0.7,1.7-1.4,2.6-2.1c1.7-1.4,3.6-2.6,5.4-3.9c0.9-0.6,1.9-1.2,2.8-1.9
			c1-0.6,2-1.1,2.9-1.7c2-1.1,4-2.2,6-3.2c1-0.5,2.1-1,3.1-1.4l1.6-0.7c0.5-0.2,1.1-0.4,1.6-0.7l1.6-0.7l0.4-0.2l0.4-0.2l0.5-0.2
			l0.5-0.2c1.4-0.4,3.1-0.9,5.3-0.9c1.1,0,2.5,0.2,3.9,0.8c0.3,0.2,0.7,0.3,1,0.5l0.5,0.3c0.2,0.2-0.1-0.1,0.5,0.3l0.1,0.1l0.2,0.1
			l0.1,0.1l0.3,0.3c0.2,0.2,0.4,0.3,0.6,0.5c0.1,0.1,0.2,0.2,0.3,0.3l0.2,0.2c1.1,1.3,1.9,2.7,2.2,4c0.4,1.3,0.5,2.4,0.5,3.4
			s-0.1,1.8-0.1,2.6l-0.1,0.5l-0.1,0.4l-0.1,0.2l-0.1,0.8c-0.2,1-0.3,2.1-0.5,3.2c-0.2,1-0.3,2.1-0.5,3.2c-0.2,1.1-0.5,2.2-0.8,3.3
			s-0.5,2.2-0.8,3.3l-0.4,1.6l-0.4,1.6c-0.6,2.1-1.2,4.2-1.9,6.3c-0.7,2.1-1.5,4.1-2.2,6.1l-0.5,1.5l-0.6,1.5c-0.4,1-0.8,2-1.2,2.9
			c-0.4,1-0.8,2-1.2,2.9c-0.4,1-0.9,1.9-1.4,2.8s-0.9,1.9-1.4,2.8c-0.4,0.9-0.9,1.9-1.4,2.8c-1,1.8-2,3.5-2.9,5.3
			c-0.3,0.4-0.5,0.9-0.8,1.3c-0.3,0.4-0.5,0.8-0.8,1.3c-0.5,0.8-1,1.7-1.6,2.5c-0.5,0.8-1,1.6-1.5,2.5l-0.4,0.6l-0.4,0.6
			c-0.3,0.4-0.5,0.8-0.8,1.1c-1.1,1.5-2.2,3.1-3.2,4.6c-1.1,1.5-2.2,2.9-3.3,4.3c-2.2,2.8-4.5,5.3-6.6,7.8c-1.1,1.3-2.2,2.3-3.3,3.5
			c-1.1,1.1-2.2,2.2-3.2,3.3c-2.2,2-4.3,3.9-6.3,5.7c-2.1,1.7-4,3.3-5.8,4.7c-0.9,0.7-1.8,1.4-2.6,2c-0.9,0.6-1.7,1.2-2.5,1.7
			c-1.5,1.1-2.9,2.1-4.2,2.9c-1.3,0.8-2.3,1.5-3.2,2c-1.7,1-2.7,1.6-2.7,1.6s0.8-0.8,2.1-2.2c1.4-1.5,3.5-3.5,6-6.3
			c0.7-0.7,1.3-1.4,2-2.2c0.7-0.8,1.5-1.5,2.2-2.4c1.5-1.7,3.1-3.5,4.7-5.5c1.6-2,3.3-4.1,5.1-6.4c0.8-1.2,1.7-2.3,2.6-3.5
			c0.9-1.2,1.9-2.4,2.7-3.8c1.7-2.6,3.7-5.2,5.4-8.2c0.9-1.5,1.8-2.9,2.7-4.4c0.9-1.5,1.7-3.1,2.6-4.6c3.4-6.3,6.8-13,9.6-20.2
			c2.8-7.2,5.4-14.7,7.2-22.6l0.4-1.5l0.3-1.5c0.2-1,0.4-1.9,0.6-2.9s0.4-2,0.6-2.9c0.2-1,0.3-2.1,0.5-3.2c0.2-1,0.3-2.1,0.5-3.2
			l0.1-0.8l0.1-0.2v-0.1c0-0.1-0.1,0.3,0,0.1l0.1-0.3c0.1-0.3,0.1-0.5,0.1-0.7c0-0.1,0-0.1,0.1,0.2s0.3,0.8,0.7,1.2l0.2,0.2
			c0.1,0.1,0.2,0.2,0.3,0.3c0.1,0.1,0.1,0.1,0.2,0.1c0.1,0-0.1-0.1-0.1-0.1l-0.2-0.1l-0.1-0.1l0.4,0.3c0.1,0.1,0.1,0.1,0.2,0.1
			c0.1,0.1,0.2,0.1,0.3,0.2c0.4,0.2,0.7,0.2,0.7,0.2c0.2,0-0.3,0-0.9,0.2l-0.2,0.1l-0.1,0.1l-0.2,0.1l-0.2,0.1c0.1,0-0.1,0-0.1,0
			l-0.1,0.1l-0.3,0.1l-1.4,0.5l-1.4,0.5l-1.4,0.6c-0.9,0.4-1.8,0.8-2.7,1.2c-3.6,1.7-7.1,3.5-10.4,5.7c-1.7,1-3.3,2.1-4.9,3.3
			c-0.8,0.5-1.6,1.1-2.4,1.7l-1.2,0.9L460,428c-1.5,1.2-3,2.5-4.5,3.7c-0.7,0.7-1.4,1.3-2.2,1.9c-0.7,0.7-1.4,1.3-2.1,2
			c-1.4,1.3-2.7,2.7-4,4l-1,1c-0.3,0.4-0.7,0.7-1,1.1c-0.3,0.4-0.7,0.7-1,1.1l-0.1,0.1l-0.1,0.1c0,0-0.1,0.1,0,0l-0.2,0.3l-0.4,0.5
			c-1.3,1.4-2.4,2.8-3.6,4.2c-1.1,1.4-2.3,2.8-3.4,4.3c-4.4,5.7-8.2,11.3-11.7,16.6s-6.5,10.3-9.3,14.8c-2.8,4.5-5.2,8.2-6.9,11.5
			c-0.9,1.6-1.5,3.1-2.1,4.5c-0.5,1.3-0.9,2.5-1.3,3.4c-0.3,1-0.5,1.7-0.6,2.2S404.4,506,404.4,506z"/>
	</g>
	<g>
		<path fill="#FFFFFF" stroke="#FFFFFF" stroke-miterlimit="10" d="M431,575.7l-0.4-1.3c-0.1-0.4-0.2-0.9-0.3-1.4
			c-0.1-0.5-0.1-1-0.2-1.4c0-0.5-0.1-1-0.1-1.5c0.1-0.5,0.1-1,0.1-1.5c0.1-0.5,0.1-1,0.2-1.5c0.1-0.5,0.2-1,0.4-1.5
			c0.2-0.5,0.3-1,0.5-1.4c0.2-0.5,0.3-1,0.6-1.4c0.2-0.4,0.4-0.9,0.7-1.4c0.3-0.4,0.5-0.9,0.8-1.3c0.3-0.4,0.6-0.9,0.9-1.3
			s0.7-0.8,1-1.2s0.7-0.8,1.1-1.1c0.4-0.3,0.8-0.7,1.2-1.1c0.4-0.3,0.8-0.7,1.3-1l2-1.5l2.3,2.1c1,0.9,2.1,2,2.9,3.1
			c0.4,0.5,0.8,1.1,1.3,1.7c0.4,0.6,0.7,1.2,1,1.9c0.7,1.3,1.1,2.5,1.6,3.8c0.4,1.3,0.8,2.6,1,3.8s0.5,2.5,0.7,3.8
			c0.2,1.3,0.3,2.5,0.5,3.7l0.4,3.5l0.4,3.5c0.2,2.3,0.5,4.6,0.7,7c0.2,2.3,0.4,4.6,0.6,7l0.3,3.5c0.1,0.5,0.1,1.3,0.1,2.2
			c0,0.9-0.1,1.9-0.3,3.1c-0.1,0.6-0.3,1.2-0.5,1.9c-0.1,0.3-0.3,0.7-0.4,0.9l-0.3,0.5l-0.1,0.1l-0.1,0.1l-0.2,0.3l-0.1,0.1
			l-0.1,0.1c-0.1,0.1,0,0-0.1,0.2c-0.2,0.2-0.3,0.4-0.5,0.7c-0.2,0.2-0.3,0.3-0.4,0.5c-0.1,0.2-0.3,0.3-0.4,0.4
			c-0.5,0.5-1.1,1-1.7,1.4c-1.2,0.8-2.6,1.4-4.2,1.6c-1.6,0.3-3.5,0.2-5.3-0.6l-3.1-1.3l-0.9-3.3c-1.2-4.4-1.5-8.9-1.1-13.1
			c0.3-4.2,1.2-8.1,2.1-11.7c0.2-0.9,0.5-1.8,0.8-2.7l0.8-2.7c0.5-1.7,1-3.5,1.6-5.3c0.5-1.7,1.1-3.5,1.7-5.3l0.9-2.6l1-2.6
			c0.3-0.9,0.7-1.7,1-2.6c0.3-0.9,0.7-1.7,1-2.6c0.7-1.7,1.5-3.4,2.2-5.1c0.8-1.7,1.6-3.4,2.5-5.1c0.4-0.8,0.9-1.6,1.3-2.5
			c0.4-0.8,0.9-1.6,1.4-2.5c0.4-0.8,0.9-1.6,1.4-2.4l1.5-2.4c0.5-0.8,1-1.5,1.6-2.3c0.5-0.8,1-1.5,1.6-2.3l1.7-2.2
			c0.6-0.7,1.2-1.4,1.8-2.1c1.2-1.4,2.5-2.8,3.8-4.1c-0.6,1.7-1.4,3.4-1.9,5.2c-0.7,1.7-1.3,3.4-1.9,5.1c-0.6,1.7-1.1,3.4-1.7,5.1
			l-0.8,2.6c-0.3,0.9-0.5,1.7-0.8,2.6c-0.5,1.7-0.9,3.4-1.4,5.1c-0.4,1.7-0.9,3.4-1.3,5.2c-0.4,1.7-0.9,3.4-1.3,5.2
			c-0.4,1.7-0.8,3.5-1.2,5.2l-1.1,5.2l-1.1,5.2l-2.2,10.5c-0.3,1.7-0.7,3.4-0.9,5c-0.2,1.6-0.4,3.2-0.5,4.7c-0.2,3.1,0,5.9,0.7,8.6
			l-4-4.5c-0.8-0.3-1.5-0.3-2-0.2c-0.5,0.1-0.7,0.2-1,0.4c-0.1,0.1-0.2,0.2-0.4,0.3l-0.1,0.1l-0.2,0.2c-0.1,0.1-0.2,0.2-0.2,0.3
			c-0.1,0.1,0,0,0,0l0.1-0.1l0.1-0.1l-0.2,0.3c0,0.1-0.1,0.1-0.1,0.1c-0.1,0.1-0.1,0.1-0.1,0.2c-0.1,0.1-0.1,0.2-0.1,0.2
			c0,0.1,0.1-0.1,0.1-0.4c0-0.3,0-0.7,0-1.4l-0.1-3.5c0-2.3-0.1-4.6-0.1-7s0-4.7,0.1-7l0.1-3.5l0.1-3.5c0.1-1.1,0.1-2.2,0.1-3.3
			s0-2.1-0.1-3.2s-0.2-2-0.3-3c-0.1-1-0.3-1.9-0.5-2.8c-0.3-0.9-0.5-1.8-0.9-2.6c-0.4-0.9-0.9-1.6-1.4-2.4l4.2,0.6
			c-0.3,0.2-0.7,0.3-1,0.4c-0.3,0.2-0.7,0.3-1,0.5c-0.3,0.2-0.7,0.4-1,0.6c-0.3,0.2-0.7,0.4-1,0.7c-0.3,0.2-0.6,0.5-0.9,0.7
			c-0.3,0.2-0.6,0.5-0.9,0.8c-0.3,0.3-0.5,0.6-0.9,0.9c-0.3,0.3-0.5,0.6-0.8,0.9c-0.3,0.3-0.5,0.7-0.8,1c-0.3,0.3-0.4,0.7-0.7,1.1
			c-0.2,0.4-0.4,0.8-0.6,1.1c-0.2,0.4-0.3,0.8-0.5,1.2c-0.2,0.4-0.3,0.8-0.4,1.3c-0.1,0.4-0.2,0.9-0.3,1.3c-0.1,0.4-0.2,0.9-0.3,1.3
			L431,575.7z"/>
	</g>
	<g>
		<path fill="#FFFFFF" stroke="#FFFFFF" stroke-miterlimit="10" d="M479.7,542.2c-0.4,1.5-0.8,2.9-1.2,4.4s-0.8,2.9-1.2,4.4
			c-0.8,2.9-1.5,5.8-2.2,8.7c-0.3,1.5-0.6,2.9-0.8,4.3c-0.1,0.7-0.2,1.4-0.3,2.1c-0.1,0.7-0.2,1.4-0.3,2.1c-0.2,1.4-0.3,2.8-0.3,4.3
			l-0.1,2.2c0,0.7,0,1.3,0.1,2s0.1,1.4,0.1,2.1c0.1,0.7,0.1,1.4,0.2,2l0.1,1l0.2,1c0.1,0.7,0.2,1.3,0.4,2c0.1,0.3,0.2,0.7,0.2,1
			l0.2,1c0.2,0.7,0.4,1.3,0.5,1.9c0.2,0.6,0.4,1.3,0.7,1.9c0.3,0.6,0.5,1.2,0.8,1.7c0.3,0.6,0.5,1.1,0.8,1.7l0.4,0.8l0.5,0.8
			c0.3,0.5,0.7,1,1,1.6c0.3,0.5,0.8,1,1.1,1.5l0.2,0.2l0.1,0.1l0,0c-0.1-0.2,0-0.1-0.1-0.1l0,0l0.1,0.1l0.2,0.2l0.1,0.1l0.1,0.1
			c0.1,0.1,0.3,0.3,0.4,0.4c0.3,0.3,0.6,0.5,0.8,0.6c0.2,0.1,0.3,0.1,0.3,0.1s-0.2-0.1-0.4-0.1l-4.3,2.3l1.4-2
			c0.4-0.7,0.9-1.4,1.4-2c0.9-1.4,1.7-2.8,2.5-4.2l0.5-1.1l0.5-1.1c0.4-0.7,0.7-1.5,1-2.2c0.7-1.5,1.3-3.1,1.9-4.6l0.8-2.3
			c0.3-0.8,0.5-1.6,0.8-2.4c0.2-0.8,0.5-1.6,0.7-2.4c0.2-0.8,0.4-1.6,0.6-2.5c0.2-0.8,0.4-1.6,0.5-2.5c0.2-0.8,0.3-1.6,0.5-2.5
			l0.1-0.5l0.1-0.7l0.2-1.4l0.4-2.5c0.2-1.7,0.4-3.4,0.6-5.1c0.2-1.7,0.3-3.4,0.4-5.2c0.1-1.7,0.2-3.5,0.3-5.3
			c0.1-1.7,0.2-3.5,0.2-5.3c0.1-1.8,0.1-3.6,0.2-5.4c0.1-1.8,0.1-3.6,0.2-5.4l0.1-1.3c0-0.4,0-0.8,0-1.1c0-0.7-0.1-1.4-0.2-1.9
			c-0.1-0.5-0.2-0.9-0.3-1.3c-0.1-0.3-0.3-0.5-0.5-0.8l3,0.5c-0.2,0-0.4,0-0.7,0.1c-0.3,0.1-0.5,0.2-0.9,0.4
			c-0.7,0.5-1.3,1.3-1.9,2.3c-0.3,0.5-0.6,1-0.9,1.6s-0.6,1.1-0.9,1.7c-0.6,1.2-1.2,2.4-1.7,3.6c-0.3,0.6-0.5,1.2-0.8,1.9
			c-0.3,0.6-0.5,1.3-0.8,1.9s-0.5,1.3-0.8,1.9c-0.2,0.7-0.5,1.3-0.7,1.9c-0.9,2.6-1.8,5.2-2.6,7.8c-0.1-0.7-0.1-1.4-0.2-2.1
			c-0.1-0.7-0.1-1.4-0.1-2.1c0-1.4,0-2.8,0.1-4.2c0.1-1.4,0.2-2.8,0.4-4.2c0.2-1.4,0.4-2.8,0.7-4.2c0.1-0.7,0.3-1.4,0.4-2.1
			c0.2-0.7,0.3-1.4,0.5-2.1c0.2-0.7,0.4-1.4,0.5-2.1s0.4-1.4,0.7-2.1c0.5-1.5,1.3-3.1,2.6-4.6c0.7-0.8,1.4-1.5,2.3-2.1
			c0.9-0.6,2-1.1,3.1-1.4l1.4-0.3l1.6,0.9c1.3,0.7,2.5,1.7,3.4,2.9s1.6,2.5,2,3.7c0.4,1.2,0.7,2.4,0.9,3.5c0.1,0.5,0.2,1.1,0.2,1.6
			l0.2,1.4c0.2,1.8,0.4,3.7,0.5,5.4c0.2,1.9,0.3,3.7,0.5,5.5c0.1,1.9,0.2,3.7,0.3,5.6c0.1,1.9,0.2,3.8,0.2,5.6c0,1.9,0,3.8-0.1,5.7
			c0,0.9-0.1,1.9-0.1,2.8c-0.1,0.9-0.2,1.9-0.2,2.9l-0.3,2.9l-0.2,1.4l-0.1,0.7l-0.1,0.8c-0.3,1.9-0.6,3.8-1,5.7
			c-0.4,1.9-0.9,3.8-1.4,5.7c-0.3,0.9-0.6,1.9-0.9,2.8c-0.3,0.9-0.7,1.9-1,2.8c-0.7,1.9-1.4,3.7-2.3,5.5c-0.4,0.9-0.9,1.8-1.3,2.7
			l-0.7,1.3l-0.8,1.3c-1,1.7-2.1,3.4-3.2,5.1c-0.5,0.8-1.2,1.6-1.8,2.4c-0.6,0.8-1.3,1.6-1.9,2.3l-1.7,2.1l-2.6,0.3
			c-1.7,0.2-3.4-0.1-4.9-0.5c-1.5-0.5-2.7-1.2-3.8-2s-1.9-1.6-2.6-2.4c-0.4-0.4-0.7-0.8-1.1-1.3l-0.1-0.2l-0.1-0.1l-0.2-0.2
			l-0.1-0.1l-0.1-0.1v-0.1l-0.1-0.2l-0.2-0.3c-0.5-0.8-1-1.5-1.4-2.3c-0.4-0.8-0.9-1.5-1.2-2.3l-0.5-1.2l-0.5-1.2
			c-0.3-0.8-0.7-1.6-0.9-2.5c-0.3-0.8-0.5-1.7-0.7-2.5c-0.2-0.8-0.4-1.7-0.6-2.5c-0.3-1.7-0.5-3.4-0.7-5.1c-0.1-0.8-0.1-1.7-0.1-2.5
			v-1.3l0.1-1.3c0.1-1.7,0.2-3.3,0.4-5c0.1-0.8,0.3-1.7,0.4-2.5l0.5-2.3c0.4-1.6,0.8-3.1,1.3-4.6c0.5-1.5,1-3,1.6-4.5
			c0.6-1.5,1.2-2.9,1.9-4.3c0.7-1.4,1.4-2.8,2.1-4.1c0.8-1.4,1.5-2.7,2.3-4C476.2,547.2,477.9,544.6,479.7,542.2z"/>
	</g>
	<g>
		<path fill="#FFFFFF" stroke="#FFFFFF" stroke-miterlimit="10" d="M488.2,615.1c1.5,0.9,2.9,1.7,4.4,2.6c1.4,0.9,2.9,1.8,4.3,2.7
			s2.8,1.8,4.3,2.7c1.4,0.9,2.8,1.9,4.2,2.8c2.8,1.9,5.6,3.8,8.3,5.7l4.1,2.9c1.4,1,2.8,1.9,4.1,2.9l4.1,2.9l4,2.8
			c1.4,0.9,2.7,1.8,4,2.7l2,1.3l2,1.3l2.1,1.2l2.1,1.1l2.1,1l2.1,1l2.1,0.9l2.1,0.8l2.1,0.7c0.7,0.2,1.4,0.4,2.1,0.6l-7.6,8
			l-3.4-8.8c-1.1-2.9-2.2-5.9-3.3-8.9c-1-3-2.1-5.9-3.1-9c-1-3-2-6-2.9-9c-0.9-3.1-1.9-6.1-2.7-9.2l-1.3-4.6
			c-0.4-1.5-0.8-3.1-1.2-4.6c-0.8-3.1-1.5-6.2-2.2-9.4s-1.3-6.3-1.9-9.4s-1-6.3-1.4-9.5c-0.2-1.6-0.4-3.2-0.5-4.8
			c-0.2-1.6-0.3-3.2-0.4-4.8c-0.1-1.6-0.2-3.2-0.3-4.9c-0.1-1.6-0.1-3.2-0.2-4.9c-0.1-1.6,0-3.2-0.1-4.9c0-1.6,0.1-3.2,0.1-4.9
			c0.1-1.6,0.2-3.2,0.3-4.9c0.1-1.6,0.3-3.2,0.4-4.8c0.2-1.6,0.4-3.2,0.6-4.8l0.8-4.7c0.3-1.6,0.7-3.2,1-4.7
			c0.4-1.6,0.8-3.1,1.1-4.7c0.4-1.5,0.9-3.1,1.4-4.6c0.5-1.5,1-3.1,1.5-4.5l1.6,0.3c-0.4,2-0.9,3.9-1.4,5.8c-0.1-2-0.2-4-0.3-6
			l1.6,0.3l-0.4,4.7c-0.1,1.6-0.2,3.1-0.3,4.7l-0.2,4.7l-0.1,4.6l0.1,4.6l0.2,4.6l0.3,4.6c0.1,1.5,0.2,3.1,0.4,4.6l0.5,4.6
			c0.2,1.5,0.4,3.1,0.6,4.6c0.4,3.1,0.9,6,1.4,9.1c0.5,3,1.1,6,1.7,9c0.3,1.5,0.6,3,1,4.5l1,4.5c0.7,3,1.5,6,2.2,8.9
			c0.8,3,1.6,5.9,2.5,8.9c0.9,2.9,1.7,5.9,2.6,8.9l1.4,4.5l1.4,4.5l2.8,8.9l2.9,8.9l5.8,17.9l3.9,12l-11.5-4
			c-0.9-0.3-1.7-0.6-2.6-0.9l-2.6-1l-2.5-1.1l-2.5-1.3l-2.3-1.3l-2.3-1.4l-2.2-1.5l-2.2-1.5l-2.1-1.6c-0.7-0.5-1.4-1.1-2.1-1.6
			c-1.4-1.1-2.7-2.2-4-3.4c-1.3-1.1-2.6-2.3-3.8-3.4l-3.7-3.5c-1.2-1.1-2.5-2.3-3.7-3.5l-3.6-3.5c-2.4-2.3-4.8-4.7-7.1-7.1
			c-1.2-1.2-2.4-2.4-3.5-3.6c-1.2-1.2-2.3-2.4-3.5-3.7c-1.1-1.2-2.3-2.5-3.5-3.7C490.4,617.7,489.3,616.4,488.2,615.1z"/>
	</g>
	<g>
		<path fill="#FFFFFF" stroke="#FFFFFF" stroke-miterlimit="10" d="M532.3,485.3c0,0,0,0.3,0,0.8c0,0.3,0,0.5,0.1,0.9
			c0,0.2,0.1,0.3,0.1,0.5c0,0.2,0.1,0.4,0.1,0.6c0.1,0.8,0.4,1.7,0.7,2.6c0.4,0.9,0.9,1.8,1.5,2.6c0.3,0.4,0.7,0.8,1,1.1
			c0.2,0.2,0.4,0.3,0.6,0.4l0.2,0.1l0.1,0.1l0,0c0-0.1,0.1,0.1-0.1-0.1l0,0l0.1,0.1h0.1l0.1-0.1l0,0c0.1,0,0.1,0.1,0.1,0.1
			c0.3,0.2,0.7,0.2,0.7,0.1c0.1-0.1,0-0.2-0.1-0.3c-0.1-0.1-0.1-0.1-0.2-0.1l0,0l0,0l0,0c-0.8-0.1-0.2,0-0.4,0h0.2l0.3-0.1
			c0,0,0.1,0,0.1,0h-0.1c-0.1,0-0.1,0-0.2-0.1c-0.1,0-0.3,0-0.3,0c-0.1-0.1-0.2,0-0.3-0.1c-0.1,0-0.1,0-0.1,0s-0.1,0-0.1,0
			s-0.1,0-0.1,0c-0.1,0,0.1-0.3,0.2-0.6c0.2-0.3,0.5-0.9,0.8-1.5l0.5-1.1c0.2-0.4,0.3-0.7,0.5-1c0.3-0.6,0.4-1.1,0.5-1.4
			c0-0.1,0.1-0.2,0.1-0.2c0,0,0-0.1,0.1-0.1v-0.1l0,0l0,0l0,0c0,0.4,0,0.1,0,0.2l0.1-0.3c0-0.1,0,0,0,0c0,0.1,0,0.1,0,0.1
			s0,0.1,0,0.1l0,0c0.1,0,0.1,0,0.1,0s0.1,0,0.2,0c0.1,0.1,0.3,0.1,0.5,0l0,0l0,0l0,0c-0.1-0.1,0.5,0.3,0.3,0.2l-0.2-0.1l-0.3-0.2
			c-0.2-0.1,0,0,0.1,0s0.1,0,0.2,0s0.1,0,0.1,0l0,0v-0.1l-0.1-0.1c-0.1-0.2-0.4-0.3-0.8-0.4c-0.8-0.2-1.7-0.1-2.5,0.1l-0.2,0.1h-0.1
			l0,0l0,0c0.2-0.2,0.1-0.1,0.1-0.1l-0.1,0.1l-0.2,0.2c-0.1,0.1-0.2,0.1-0.2,0.1c-0.1,0.1-0.2,0.1-0.3,0.1c-0.1,0.1-0.2,0.1-0.3,0.2
			c-0.4,0.2-0.8,0.5-1.3,0.9c-0.8,0.7-1.5,1.4-2.1,2c-0.6,0.7-1.1,1.2-1.4,1.6c-0.3,0.4-0.5,0.5-0.5,0.5s-0.1-0.3-0.2-0.8
			c-0.1-0.5-0.3-1.2-0.4-2.1c-0.2-0.9-0.2-2.1-0.1-3.5c0.1-0.7,0.3-1.5,0.5-2.3c0.1-0.2,0.2-0.4,0.2-0.6c0.1-0.2,0.2-0.5,0.3-0.7
			c0.1-0.2,0.1-0.2,0.1-0.3l0.1-0.3l0.1-0.1c0.1-0.1-0.1,0.1,0.1-0.1l0,0v-0.1l0.1-0.1l0.2-0.3c1.3-1.8,3-3.3,5.4-4.3
			c1.2-0.5,2.6-0.9,4.1-0.9c0.4,0,0.8,0,1.2,0l0.6,0.1l0.3,0.1c0.1,0,0.2,0.1,0.3,0.1c0.3,0.1,0.5,0.1,0.8,0.2
			c0.3,0.1,0.6,0.2,0.7,0.2l0.3,0.1l0.2,0.1l0.6,0.3c1.7,0.8,3.3,2.1,4.4,3.7c1.1,1.6,1.8,3.3,2.1,5.1c0.1,0.2,0.1,0.4,0.1,0.7
			c0,0.2,0.1,0.4,0.1,0.8v0.4v0.3v0.3l-0.1,0.8c0,0.2-0.1,0.4-0.1,0.6c-0.1,0.4-0.1,0.8-0.2,1.2c-0.3,1.5-0.8,2.8-1.3,3.9
			c-0.3,0.5-0.5,1-0.8,1.5c-0.1,0.2-0.3,0.5-0.4,0.7L549,499c-0.6,1-1.3,2.1-2.3,3.2c-1,1.1-2.1,2.2-3.8,3.2
			c-0.4,0.2-0.8,0.4-1.3,0.7c-0.2,0.1-0.4,0.2-0.7,0.3c-0.3,0.1-0.5,0.2-0.8,0.2c-0.5,0.2-1,0.2-1.5,0.3c-0.3,0.1-0.7,0.1-1,0.1
			h-0.5h-0.3c-0.1,0-0.1,0-0.1,0l-0.3-0.1l-0.2-0.1c-0.2,0,0.4,0-0.4-0.1h-0.1h-0.1l-0.2-0.1c-0.5-0.1-1-0.2-1.5-0.4
			c-0.9-0.3-1.7-0.8-2.5-1.3c-1.4-1-2.3-2.2-2.9-3.3l-0.3-0.5l-0.1-0.1l-0.1-0.1l-0.1-0.2l-0.1-0.1l0,0c-0.1-0.2-0.1-0.1-0.1-0.1
			v-0.1l-0.1-0.2l-0.2-0.4c-0.2-0.5-0.4-1-0.5-1.6c-0.3-1-0.4-2.1-0.5-3.1c-0.1-2,0.3-3.7,0.8-5c0.5-1.4,1.3-2.4,1.9-3.2
			c0.7-0.7,1.3-1.3,1.7-1.5C532.1,485.4,532.3,485.3,532.3,485.3z"/>
	</g>
	<g>
		<path fill="#FFFFFF" stroke="#FFFFFF" stroke-miterlimit="10" d="M536.5,587.6c1.1-1,2.2-1.9,3.4-2.9l3.4-2.8
			c2.3-1.9,4.6-3.7,6.9-5.6l3.5-2.7c1.1-0.9,2.3-1.8,3.5-2.7c2.3-1.8,4.6-3.6,7-5.3s4.7-3.5,7-5.3c2.3-1.7,4.7-3.5,7.1-5.2l7.1-5.2
			l7.2-5.1l-1.6,1.5l-0.2,0.2c-0.1,0.1,0,0-0.1,0.1l0,0l0.1-0.2c0-0.1,0.1-0.2,0.1-0.3s0.1-0.2,0.1-0.3c0.1-0.4,0.1-1,0.1-1.6
			c0-1.1-0.3-2.5-0.7-3.8l-0.2-0.5l-0.1-0.3l-0.1-0.1c0-0.1,0.1,0.2,0,0.1v-0.1l-0.1-0.1l-0.2-0.7c-0.1-0.1-0.1-0.2-0.1-0.3
			l-0.1-0.2l-0.2-0.4l-0.2-0.4c-0.1-0.3-0.3-0.5-0.4-0.8c-0.3-0.5-0.6-1-0.9-1.4c-0.3-0.4-0.6-0.7-0.9-0.9c-0.6-0.5-1.1-0.7-1.9-0.8
			c-0.7-0.1-1.7-0.1-2.8,0.2c-1.1,0.2-2.3,0.7-3.7,1.2c-1.3,0.6-2.6,1.3-3.8,2.1c-2.6,1.6-5,3.6-7.3,5.8c-1.1,1.1-2.2,2.2-3.2,3.4
			c-0.5,0.6-0.9,1.1-1.4,1.7c-0.2,0.3-0.4,0.5-0.6,0.8l-0.1,0.2l-0.1,0.1l-0.1,0.1l0,0c0,0,0.1-0.1,0-0.1l-0.3,0.6
			c-0.1,0.2-0.2,0.3-0.3,0.5l-0.3,0.4c-0.2,0.3-0.4,0.7-0.5,1c-0.3,0.7-0.7,1.4-1,2.1c-0.7,1.4-1.2,2.9-1.7,4.4c-1,3-1.7,6-2.2,9.2
			c-0.4,3.1-0.5,6.2-0.1,8.9c0.4,2.8,1.2,5.4,2.5,7.4c1.4,2,3.2,3.4,5.6,4.3c1.3,0.4,2.6,0.8,4,0.9c0.7,0.1,1.5,0.2,2.2,0.2
			c0.4,0,0.8,0.1,1.1,0h1.1l1.2-0.1c0.3,0,0.8-0.1,1.1-0.1c0.8-0.1,1.5-0.2,2.3-0.3c1.5-0.3,3.1-0.7,4.6-1.1c3.1-1,6-2.5,8.8-4.3
			c2.8-1.9,5.6-4,8.1-6.4c2.6-2.4,5-5.1,7.2-7.9c-1,3.5-2.6,6.8-4.5,10c-1.9,3.2-4.2,6.2-6.9,8.9c-2.7,2.7-5.8,5.2-9.3,7.1
			c-1.7,0.9-3.6,1.8-5.6,2.5c-1,0.3-2,0.7-2.9,0.9c-0.5,0.1-1,0.2-1.5,0.3l-0.8,0.2l-0.7,0.1l-0.2,0.1h-0.1H573l-0.4,0.1l-0.8,0.1
			c-0.5,0.1-1,0.1-1.5,0.2c-1,0.1-2.1,0.1-3.2,0.1c-2.1-0.1-4.3-0.3-6.5-0.9c-2.2-0.6-4.4-1.5-6.4-2.8c-2.1-1.3-3.9-2.9-5.3-4.9
			c-1.5-1.9-2.7-3.9-3.5-6c-0.9-2.1-1.5-4.3-1.9-6.3c-0.8-4.3-0.8-8.4-0.5-12.4c0.2-2,0.5-4,0.9-6c0.4-2,0.9-3.9,1.5-5.8
			s1.3-3.8,2.1-5.7c0.4-0.9,0.8-1.9,1.3-2.8c0.2-0.4,0.5-0.9,0.7-1.4l0.4-0.7l0.4-0.7l0.3-0.6l0.5-0.8c0.3-0.5,0.6-0.9,0.9-1.4
			c0.6-0.9,1.3-1.7,2-2.5c1.3-1.6,2.7-3.1,4.1-4.5c2.9-2.8,6-5.3,9.6-7.5c1.7-1.1,3.7-2.1,5.7-2.9c2-0.8,4.2-1.6,6.6-2
			c2.4-0.4,5.1-0.5,7.9,0.2c2.8,0.6,5.6,2.1,7.6,4c1,1,1.9,2,2.7,3.1c0.7,1.1,1.3,2.2,1.9,3.2c0.2,0.5,0.5,1.1,0.7,1.6l0.3,0.8
			l0.3,0.9l0.1,0.4l0.1,0.3l0.2,0.7l0.1,0.3l0.1,0.2l0.1,0.4l0.2,0.8c0.4,2.2,0.7,4.4,0.6,6.9c-0.1,1.2-0.2,2.5-0.5,3.8
			c-0.1,0.3-0.2,0.7-0.3,1c-0.1,0.3-0.2,0.7-0.3,1c-0.1,0.2-0.2,0.3-0.2,0.5c-0.1,0.2-0.2,0.3-0.3,0.5c-0.1,0.2-0.2,0.4-0.3,0.6
			l-0.2,0.3l-0.1,0.2l-0.1,0.1l-0.2,0.2l-0.7,1l-0.9,0.5l-7.6,4.4l-7.6,4.4c-2.6,1.5-5.1,2.8-7.7,4.3c-2.6,1.4-5.1,2.8-7.7,4.3
			c-2.6,1.4-5.2,2.8-7.8,4.1c-1.3,0.7-2.6,1.4-3.9,2l-3.9,2c-2.6,1.4-5.2,2.7-7.9,4l-4,1.9C539.2,586.4,537.8,587,536.5,587.6z"/>
	</g>
	<g>
		<path fill="#FFFFFF" stroke="#FFFFFF" stroke-miterlimit="10" d="M651.9,520.6c0,0-0.2-0.1-0.4-0.2c-0.3-0.2-0.7-0.4-1.3-0.8
			c-1-0.7-2.5-1.9-4.1-3.4c-1.7-1.5-3.8-3.3-6.2-5.1c-1.2-0.9-2.5-1.8-3.8-2.4c-0.7-0.3-1.3-0.5-1.7-0.5c-0.2,0-0.4,0-0.4,0.1
			c-0.1,0.1-0.1,0.1,0,0.2c0.1,0.1,0.1,0.1,0.1,0.1s-0.1,0.2-0.2,0.4l0,0c-0.1,0.1,0.1-0.1,0-0.1l-0.1,0.1l-0.1,0.2
			c-0.1,0.1-0.1,0.2-0.2,0.3l-0.3,0.5c-0.2,0.4-0.4,0.8-0.5,1.2c-0.8,1.7-1.5,3.6-2.1,5.6c-1.3,4-2.5,8.2-3.4,12.7
			c-0.9,4.5-1.6,9.1-1.9,13.7c-0.3,4.6-0.2,9.3,0.5,13.6c0.7,4.4,2.1,8.3,4.2,11.6c0.3,0.4,0.5,0.8,0.8,1.2c0.2,0.2,0.3,0.4,0.4,0.5
			l0.2,0.3l0.1,0.2c-0.3-0.4-0.1-0.1-0.1-0.2l0.1,0.1l0.1,0.1l0.2,0.2l0.1,0.1l0.1,0.1l0,0l-0.1-0.1l0,0l0,0l0.1,0.1
			c0.1,0.1,0.1,0.1,0.1,0.1c0.2,0.2,0.4,0.3,0.6,0.4c0.5,0.3,1.2,0.5,2,0.7s1.7,0.3,2.6,0.4c1.9,0.1,3.8,0,5.7-0.3
			c0.9-0.2,1.9-0.4,2.7-0.6c0.2-0.1,0.4-0.1,0.6-0.2h0.1c0,0,0.1-0.1-0.1,0l0.1-0.1l0.2-0.1l0.4-0.2c0.5-0.2,1-0.4,1.6-0.6
			c0.9-0.4,1.9-0.7,2.8-1.1c0.9-0.4,1.9-0.8,2.7-1.2c1.8-0.8,3.5-1.7,5.1-2.6c0.8-0.4,1.6-0.9,2.3-1.3c0.8-0.4,1.5-0.9,2.2-1.4
			c0.7-0.4,1.4-0.9,2.1-1.4c0.7-0.4,1.3-0.9,2-1.3c2.5-1.7,4.6-3.4,6.4-4.9c1.7-1.4,3.1-2.6,4-3.4s1.4-1.3,1.4-1.3s-0.3,0.6-0.8,1.7
			c-0.3,0.5-0.6,1.3-1,2.1c-0.4,0.8-0.9,1.7-1.5,2.7c-1.2,2-2.8,4.4-4.8,6.9c-0.5,0.7-1.1,1.3-1.6,2c-0.6,0.7-1.2,1.3-1.8,2
			c-0.7,0.7-1.3,1.3-2,2c-0.7,0.7-1.4,1.4-2.2,2c-1.6,1.3-3.2,2.7-5,4c-0.9,0.7-1.9,1.3-2.8,1.9c-0.9,0.7-2.1,1.3-3.1,1.9
			c-0.5,0.3-1,0.5-1.5,0.8l-0.4,0.2l-0.2,0.1l-0.1,0.1l-0.2,0.1c-0.3,0.2-0.7,0.3-0.9,0.4c-1.3,0.6-2.6,1-3.9,1.5
			c-2.7,0.8-5.4,1.4-8.4,1.5c-1.5,0.1-3.1,0-4.7-0.2c-1.6-0.2-3.3-0.7-5.1-1.4c-0.9-0.4-1.8-0.8-2.7-1.4c-0.2-0.1-0.4-0.3-0.7-0.4
			l-0.3-0.2l-0.2-0.1l-0.2-0.2c-0.3-0.2-0.5-0.4-0.8-0.7l-0.4-0.4l-0.1-0.1l-0.1-0.1c-0.1-0.1,0.2,0.2-0.2-0.2l-0.2-0.2l-0.4-0.4
			c-0.3-0.3-0.5-0.6-0.8-0.9c-0.5-0.6-1-1.2-1.5-1.9c-0.9-1.3-1.7-2.6-2.5-4c-0.8-1.4-1.4-2.8-1.9-4.2c-0.5-1.4-1-2.9-1.4-4.4
			s-0.7-2.9-0.9-4.4c-1-5.8-0.9-11.6-0.2-17.1c0.7-5.4,1.9-10.7,3.4-15.5c1.5-4.9,3.4-9.4,5.6-13.6c1.1-2.1,2.2-4.1,3.5-6
			c0.3-0.5,0.7-1,1-1.4c0.2-0.3,0.4-0.5,0.6-0.8c0.1-0.2,0.2-0.2,0.3-0.3l0.1-0.2l0.2-0.2c0.5-0.6,1.1-1.3,1.9-1.8
			c0.8-0.5,1.7-1,2.7-1.3c1-0.2,2-0.3,2.8-0.2c0.9,0.1,1.6,0.4,2.3,0.7c1.3,0.5,2.2,1.3,3.1,2c1.6,1.4,2.8,2.8,3.8,4.1
			c2,2.7,3.4,5.1,4.5,7.1s2,3.6,2.6,4.6c0.3,0.5,0.6,0.9,0.8,1.1C651.8,520.5,651.9,520.6,651.9,520.6z"/>
	</g>
	<g>
		<g>
			<path fill="#FFFFFF" stroke="#FFFFFF" stroke-miterlimit="10" d="M688.8,393.8c0,0,0.2,0.9,0.5,2.6c0.3,1.7,0.8,4.2,1.3,7.4
				c0.5,3.2,1.1,7.1,1.7,11.5c0.6,4.5,1.3,9.5,1.9,14.9s1.4,11.4,2,17.7c0.3,3.1,0.7,6.4,1,9.6c0.2,1.6,0.3,3.3,0.5,5
				c0.2,1.7,0.3,3.4,0.5,5.1c0.7,6.8,1.3,13.9,1.9,21c0.7,7.1,1.3,14.4,2,21.6c0.3,3.6,0.7,7.2,1.1,10.7c0.2,1.8,0.4,3.5,0.7,5.2
				c0.3,1.7,0.5,3.5,0.8,5.2c0.3,1.7,0.5,3.4,0.8,5.1c0.3,1.6,0.6,3.3,1,4.9c0.4,1.6,0.8,3.1,1.3,4.6c0.2,0.8,0.5,1.5,0.7,2.2
				l0.1,0.3v0.1c-0.1-0.1,0,0.1,0,0.1l0.1,0.2l0.2,0.5c0.1,0.3,0.3,0.6,0.4,0.9c0.5,1.2,1.1,2.3,1.8,3.2c0.3,0.4,0.7,0.8,1,1.1
				c0.3,0.3,0.7,0.6,1.1,0.8c0.2,0.1,0.4,0.2,0.6,0.3c0.1,0.1,0.2,0.1,0.3,0.1l0.2,0.1c0.2,0.1-0.2,0-0.1,0h0.1l0.2,0.1l0.5,0.1
				c0.1,0,0.2,0.1,0.2,0.1c0.1,0,0.2,0.1,0.3,0.1c0.1,0,0.3,0.1,0.4,0.1c1,0.1,2.2,0,3.5-0.3c1.3-0.3,2.6-0.8,3.9-1.3l0.5-0.2
				c0.1,0-0.1,0.1,0,0l0.1-0.1l0.1-0.1l0.3-0.2c0.3-0.2,0.5-0.3,0.8-0.5c0.6-0.4,1.2-0.8,1.8-1.1c2.4-1.6,4.7-3.3,6.9-4.9
				c4.4-3.2,8.4-6.3,12-9c3.5-2.7,6.6-5.1,9.2-7.1c2.5-2,4.5-3.5,5.8-4.6c1.4-1.1,2-1.7,2-1.7s-0.5,0.8-1.7,2.1s-2.8,3.2-5,5.6
				c-2.2,2.3-4.9,5.2-8.1,8.4c-3.2,3.2-6.8,6.8-10.8,10.6c-2,1.9-4.1,3.9-6.5,5.8c-0.6,0.5-1.2,1-1.9,1.5l-0.5,0.4
				c-0.2,0.1-0.4,0.3-0.5,0.4l-0.5,0.4l-0.5,0.4c-1.4,1-2.8,2-4.5,2.8c-1.7,0.8-3.6,1.5-5.8,1.9c-0.3,0.1-0.5,0.1-0.8,0.1
				c-0.3,0-0.5,0.1-0.9,0.1c-0.3,0-0.7,0-1,0l-0.7-0.1h-0.2h-0.1c0,0-0.4-0.1-0.3-0.1l-0.4-0.1c-0.3-0.1-0.6-0.1-0.9-0.2
				c-0.6-0.1-1.2-0.3-1.7-0.5c-1.1-0.4-2.3-0.9-3.3-1.6c-1-0.7-2-1.4-2.8-2.2c-1.7-1.6-3.1-3.3-4.1-5.1c-0.3-0.4-0.5-0.9-0.8-1.4
				l-0.4-0.7l-0.1-0.2l-0.1-0.2l-0.2-0.3c-0.4-0.9-0.9-1.7-1.3-2.7c-0.8-1.8-1.5-3.6-2-5.4c-0.6-1.9-1.1-3.7-1.6-5.5
				c-0.4-1.9-0.9-3.7-1.2-5.5c-0.2-0.9-0.3-1.8-0.5-2.7c-0.2-0.9-0.3-1.9-0.5-2.8c-0.3-1.9-0.5-3.7-0.8-5.6
				c-0.5-3.7-0.9-7.4-1.2-11.1c-0.7-7.4-1.1-14.8-1.5-22c-0.3-7.2-0.6-14.4-0.7-21.3c-0.1-1.7-0.1-3.4-0.1-5.1c0-1.7,0-3.4-0.1-5
				c0-3.3-0.1-6.5,0-9.7c0.1-6.3,0.2-12.3,0.3-17.8c0.2-5.5,0.4-10.6,0.7-15c0.2-4.5,0.5-8.4,0.8-11.6c0.2-3.2,0.5-5.8,0.7-7.5
				C688.7,394.7,688.8,393.8,688.8,393.8z"/>
		</g>
		<g>
			<path fill="#FFFFFF" stroke="#FFFFFF" stroke-miterlimit="10" d="M654.7,514.4c0,0,1.2-1.2,3.4-3.1c1.1-0.9,2.5-2.1,4.1-3.3
				c1.6-1.2,3.4-2.6,5.4-4c4-2.8,8.8-5.9,14-8.9c5.2-3.1,11-6,16.7-8.8c5.8-2.8,11.7-5.3,17.4-7.5c5.7-2.1,11.1-3.9,15.8-5.2
				c2.3-0.7,4.6-1.2,6.5-1.6c2-0.4,3.7-0.8,5.1-1c2.9-0.5,4.6-0.7,4.6-0.7s-1.2,1.3-3.4,3.2c-1.1,1-2.5,2.1-4,3.3
				c-1.6,1.3-3.4,2.6-5.4,4c-4,2.8-8.8,5.9-14,9c-5.2,3.1-11,6-16.8,8.8c-5.8,2.8-11.8,5.3-17.4,7.4c-5.7,2.1-11.1,3.9-15.9,5.1
				c-2.4,0.7-4.6,1.2-6.5,1.6c-2,0.4-3.7,0.8-5.1,1C656.5,514.3,654.7,514.4,654.7,514.4z"/>
		</g>
	</g>
	<path fill="#FFFFFF" stroke="#FFFFFF" stroke-miterlimit="10" d="M281.5,634.8"/>
</g>
</svg>
